<?xml version="1.0" encoding="UTF-8" standalone="no"?>
<svg
   width="256"
   height="256"
   viewBox="0 0 256 256"
   version="1.1"
   id="svg244"
   xml:space="preserve"
   xmlns="http://www.w3.org/2000/svg"
   xmlns:svg="http://www.w3.org/2000/svg"><defs
     id="defs232"><path
       id="a"
       d="m 33.974,18 h -2.5 V 8.055 c 0,-0.707 -0.56,-1.26 -1.274,-1.26 h -3.68 c -0.69,0 -1.25,-0.558 -1.25,-1.246 0,-0.688 0.56,-1.246 1.25,-1.246 h 3.68 a 3.75,3.75 0 0 1 3.774,3.752 z M 13,45 H 3.772 A 3.75,3.75 0 0 1 0,41.247 V 8.055 C 0,5.987 1.673,4.303 3.737,4.303 h 3.458 c 0.69,0 1.25,0.558 1.25,1.246 0,0.688 -0.56,1.245 -1.25,1.245 H 3.737 C 3.06,6.794 2.5,7.358 2.5,8.055 v 33.192 c 0,0.708 0.56,1.261 1.272,1.261 H 13 Z M 7.71,17.86 c -0.69,0 -1.25,-0.558 -1.25,-1.246 0,-0.688 0.56,-1.246 1.25,-1.246 h 18.554 c 0.69,0 1.25,0.558 1.25,1.246 0,0.688 -0.56,1.246 -1.25,1.246 z m 0,6.698 c -0.69,0 -1.25,-0.558 -1.25,-1.246 0,-0.688 0.56,-1.246 1.25,-1.246 h 7.554 c 0.69,0 1.25,0.558 1.25,1.246 0,0.688 -0.56,1.246 -1.25,1.246 z m 0,6.697 c -0.69,0 -1.25,-0.557 -1.25,-1.245 0,-0.688 0.56,-1.246 1.25,-1.246 h 3.554 c 0.69,0 1.25,0.558 1.25,1.246 0,0.688 -0.56,1.245 -1.25,1.245 z M 10.41,8.417 V 2.78 h 4.568 V 1.95 c 0,-1.076 0.901,-1.951 2.01,-1.951 1.106,0 2.01,0.875 2.01,1.95 v 0.83 h 4.565 V 8.416 H 10.411 Z" /></defs><g
     id="g218"
     transform="matrix(21.001064,0,0,21.001064,-3790.212,-1757.1002)"><rect
       style="fill:#ffffff;fill-opacity:1;stroke:#000000;stroke-width:0.189859;stroke-linecap:round;stroke-linejoin:round;stroke-dasharray:none;stroke-dashoffset:0"
       id="rect193"
       width="12"
       height="12"
       x="180.57207"
       y="83.762131"
       rx="0.5"
       ry="0.5" /><path
       style="fill:none;fill-opacity:1;stroke:#000000;stroke-width:0.5;stroke-linecap:round;stroke-linejoin:round;stroke-dasharray:none;stroke-dashoffset:0;stroke-opacity:1"
       d="m 181.35124,95.124637 h 0.24301"
       id="path195" /><path
       style="fill:none;fill-opacity:1;stroke:#000000;stroke-width:0.5;stroke-linecap:round;stroke-linejoin:round;stroke-dasharray:none;stroke-dashoffset:0;stroke-opacity:1"
       d="m 189.28874,85.599634 h 0.24301"
       id="path196" /><path
       style="fill:none;fill-opacity:1;stroke:#80b3ff;stroke-width:0.5;stroke-linecap:round;stroke-linejoin:round;stroke-dasharray:none;stroke-dashoffset:0;stroke-opacity:1"
       d="m 182.93874,86.657968 h 1.98892 c 0.0697,-0.335143 0.28315,-2.116668 1.30758,-2.116668"
       id="path197" /><path
       style="fill:none;fill-opacity:1;stroke:#8dd35f;stroke-width:0.5;stroke-linecap:round;stroke-linejoin:round;stroke-dasharray:none;stroke-dashoffset:0;stroke-opacity:1"
       d="m 182.93874,87.716302 h 1.84392 c 7.09933,0 6.45007,0.887094 5.81978,1.72429 -0.26797,0.355931 -3.12195,0.2471 -2.78616,0.512989"
       id="path198" /><path
       style="fill:none;fill-opacity:1;stroke:#d1d35f;stroke-width:0.5;stroke-linecap:round;stroke-linejoin:round;stroke-dasharray:none;stroke-dashoffset:0;stroke-opacity:1"
       d="m 183.01861,88.774636 h 1.53617 c 3.80056,0.180312 0.17595,2.045829 3.39961,-0.808334 1.90795,-1.689264 2.03095,2.013656 2.71556,0.808334"
       id="path199" /><path
       style="fill:none;fill-opacity:1;stroke:#80b3ff;stroke-width:0.5;stroke-linecap:round;stroke-linejoin:round;stroke-dasharray:none;stroke-dashoffset:0;stroke-opacity:1"
       d="m 183.01861,90.891304 h 1.53617 c 0.48826,0.02316 0.74129,-0.832234 0.98239,-0.687723 1.24801,0.748029 -0.39229,2.366874 2.41722,-0.120611 1.90795,-1.689262 2.03095,2.013656 2.71556,0.808334"
       id="path213" /><path
       style="fill:none;fill-opacity:1;stroke:#d1d35f;stroke-width:0.5;stroke-linecap:round;stroke-linejoin:round;stroke-dasharray:none;stroke-dashoffset:0;stroke-opacity:1"
       d="m 182.93874,92.070249 h 2.11322 c 0.24454,0 1.55499,-0.559181 2.01517,-0.0343 1.66217,1.895828 3.21153,6.455495 2.07899,-0.600506 -0.17275,-1.076279 1.74432,-0.706943 1.45632,-1.089482 -0.26797,-0.355933 -3.12195,-0.2471 -2.78616,-0.512989"
       id="path214" /><path
       style="fill:none;fill-opacity:1;stroke:#8dd35f;stroke-width:0.5;stroke-linecap:round;stroke-linejoin:round;stroke-dasharray:none;stroke-dashoffset:0;stroke-opacity:1"
       d="m 182.93874,89.83297 h 1.84392 c 7.09933,0 6.45007,0.887094 5.81978,1.72429 -0.26797,0.355931 -3.12195,0.2471 -2.78616,0.512989"
       id="path215" /><path
       style="fill:none;fill-opacity:1;stroke:#8dd35f;stroke-width:0.5;stroke-linecap:round;stroke-linejoin:round;stroke-dasharray:none;stroke-dashoffset:0;stroke-opacity:1"
       d="m 182.93874,93.007972 h 1.84392 c 0.75383,0 1.17745,-0.952236 1.60297,-1.359058 1.94922,-1.863571 4.59373,1.941453 4.03037,2.689753 -0.26797,0.355933 -3.32911,-1.327282 -2.99332,-1.061393"
       id="path216" /><path
       style="fill:none;fill-opacity:1;stroke:#80b3ff;stroke-width:0.5;stroke-linecap:round;stroke-linejoin:round;stroke-dasharray:none;stroke-dashoffset:0;stroke-opacity:1"
       d="m 182.93874,94.074003 h 1.98892 c 0.16456,-0.791055 0.70975,-1.111621 1.22438,-1.058334 0.68079,0.07049 1.68902,0.749601 1.31097,1.410498 -1.60678,1.676988 0.83219,-2.811553 0.97039,0.468404 l 1.09835,-1.201501"
       id="path217" /><path
       style="fill:none;fill-opacity:1;stroke:#000000;stroke-width:0.5;stroke-linecap:round;stroke-linejoin:round;stroke-dasharray:none;stroke-dashoffset:0;stroke-opacity:1"
       d="m 181.35124,85.599634 h 7.12218"
       id="path194" /><path
       style="fill:none;fill-opacity:1;stroke:#80b3ff;stroke-width:0.5;stroke-linecap:round;stroke-linejoin:round;stroke-dasharray:none;stroke-dashoffset:0;stroke-opacity:1"
       d="m 186.23524,84.5413 c 0.68079,0.07049 1.22489,0.749601 0.84684,1.410498 -1.76292,2.883809 0.65414,6.24426 1.64134,2.962323 l 0.47688,-2.006153"
       id="path218" /></g></svg>
